<mxfile host="app.diagrams.net" modified="2020-06-01T16:11:49.394Z" agent="5.0 (Windows)" etag="kZA_yv1PBj5tU4PRrQ4z" version="13.1.4" type="github">
  <diagram name="Page-1" id="13e1069c-82ec-6db2-03f1-153e76fe0fe0">
    <mxGraphModel dx="2223" dy="800" grid="1" gridSize="10" guides="1" tooltips="1" connect="1" arrows="1" fold="1" page="1" pageScale="1" pageWidth="1100" pageHeight="850" background="#ffffff" math="0" shadow="0">
      <root>
        <mxCell id="0" />
        <mxCell id="1" parent="0" />
        <mxCell id="7baba1c4bc27f4b0-4" value="&lt;div&gt;Node 3&lt;/div&gt;Max Jobs: 10" style="shape=umlLifeline;perimeter=lifelinePerimeter;whiteSpace=wrap;html=1;container=1;collapsible=0;recursiveResize=0;outlineConnect=0;rounded=1;shadow=0;comic=0;labelBackgroundColor=none;strokeWidth=1;fontFamily=Verdana;fontSize=12;align=center;" parent="1" vertex="1">
          <mxGeometry x="540" y="80" width="100" height="600" as="geometry" />
        </mxCell>
        <mxCell id="aB-_NTusQyPcKDF3ZL6z-6" value="&lt;div&gt;Job #7, 5 seconds&lt;br&gt;&lt;/div&gt;" style="html=1;verticalAlign=bottom;endArrow=block;labelBackgroundColor=none;fontFamily=Verdana;fontSize=12;edgeStyle=elbowEdgeStyle;elbow=vertical;" parent="7baba1c4bc27f4b0-4" target="aB-_NTusQyPcKDF3ZL6z-5" edge="1">
          <mxGeometry x="0.5749" relative="1" as="geometry">
            <mxPoint x="-390.5" y="320" as="sourcePoint" />
            <Array as="points">
              <mxPoint x="-150" y="320" />
              <mxPoint x="-60" y="300" />
            </Array>
            <mxPoint x="1" as="offset" />
          </mxGeometry>
        </mxCell>
        <mxCell id="7baba1c4bc27f4b0-16" value="" style="html=1;points=[];perimeter=orthogonalPerimeter;rounded=0;shadow=0;comic=0;labelBackgroundColor=none;strokeWidth=1;fontFamily=Verdana;fontSize=12;align=center;" parent="1" vertex="1">
          <mxGeometry x="585" y="240" width="10" height="400" as="geometry" />
        </mxCell>
        <mxCell id="7baba1c4bc27f4b0-2" value="&lt;div&gt;Node 1&lt;/div&gt;&lt;div&gt;Max Jobs: 2&lt;br&gt;&lt;/div&gt;" style="shape=umlLifeline;perimeter=lifelinePerimeter;whiteSpace=wrap;html=1;container=1;collapsible=0;recursiveResize=0;outlineConnect=0;rounded=1;shadow=0;comic=0;labelBackgroundColor=none;strokeWidth=1;fontFamily=Verdana;fontSize=12;align=center;" parent="1" vertex="1">
          <mxGeometry x="240" y="80" width="123" height="600" as="geometry" />
        </mxCell>
        <mxCell id="7baba1c4bc27f4b0-10" value="" style="html=1;points=[];perimeter=orthogonalPerimeter;rounded=0;shadow=0;comic=0;labelBackgroundColor=none;strokeWidth=1;fontFamily=Verdana;fontSize=12;align=center;" parent="7baba1c4bc27f4b0-2" vertex="1">
          <mxGeometry x="56.5" y="81" width="10" height="399" as="geometry" />
        </mxCell>
        <mxCell id="7baba1c4bc27f4b0-3" value="&lt;div&gt;Node 2&lt;/div&gt;Max Jobs: 4" style="shape=umlLifeline;perimeter=lifelinePerimeter;whiteSpace=wrap;html=1;container=1;collapsible=0;recursiveResize=0;outlineConnect=0;rounded=1;shadow=0;comic=0;labelBackgroundColor=none;strokeWidth=1;fontFamily=Verdana;fontSize=12;align=center;" parent="1" vertex="1">
          <mxGeometry x="400" y="80" width="100" height="600" as="geometry" />
        </mxCell>
        <mxCell id="7baba1c4bc27f4b0-13" value="" style="html=1;points=[];perimeter=orthogonalPerimeter;rounded=0;shadow=0;comic=0;labelBackgroundColor=none;strokeWidth=1;fontFamily=Verdana;fontSize=12;align=center;" parent="7baba1c4bc27f4b0-3" vertex="1">
          <mxGeometry x="45" y="120" width="10" height="120" as="geometry" />
        </mxCell>
        <mxCell id="aB-_NTusQyPcKDF3ZL6z-4" value="Job #6, 5 seconds" style="html=1;verticalAlign=bottom;endArrow=block;entryX=0;entryY=0;labelBackgroundColor=none;fontFamily=Verdana;fontSize=12;edgeStyle=elbowEdgeStyle;elbow=vertical;" parent="7baba1c4bc27f4b0-3" target="aB-_NTusQyPcKDF3ZL6z-3" edge="1">
          <mxGeometry x="1" y="-85" relative="1" as="geometry">
            <mxPoint x="-250.5" y="280" as="sourcePoint" />
            <mxPoint as="offset" />
          </mxGeometry>
        </mxCell>
        <mxCell id="aB-_NTusQyPcKDF3ZL6z-1" value="" style="html=1;points=[];perimeter=orthogonalPerimeter;rounded=0;shadow=0;comic=0;labelBackgroundColor=none;strokeWidth=1;fontFamily=Verdana;fontSize=12;align=center;" parent="7baba1c4bc27f4b0-3" vertex="1">
          <mxGeometry x="45" y="240" width="10" height="200" as="geometry" />
        </mxCell>
        <mxCell id="7baba1c4bc27f4b0-5" value="&lt;div&gt;Node 4&lt;/div&gt;&lt;div&gt;Max Jobs: 2&lt;/div&gt;" style="shape=umlLifeline;perimeter=lifelinePerimeter;whiteSpace=wrap;html=1;container=1;collapsible=0;recursiveResize=0;outlineConnect=0;rounded=1;shadow=0;comic=0;labelBackgroundColor=none;strokeWidth=1;fontFamily=Verdana;fontSize=12;align=center;" parent="1" vertex="1">
          <mxGeometry x="680" y="80" width="100" height="600" as="geometry" />
        </mxCell>
        <mxCell id="7baba1c4bc27f4b0-19" value="" style="html=1;points=[];perimeter=orthogonalPerimeter;rounded=0;shadow=0;comic=0;labelBackgroundColor=none;strokeWidth=1;fontFamily=Verdana;fontSize=12;align=center;" parent="7baba1c4bc27f4b0-5" vertex="1">
          <mxGeometry x="45" y="200" width="10" height="190" as="geometry" />
        </mxCell>
        <mxCell id="aB-_NTusQyPcKDF3ZL6z-8" value="&lt;div&gt;Job #8, 2 seconds&lt;/div&gt;" style="html=1;verticalAlign=bottom;endArrow=block;entryX=0;entryY=0;labelBackgroundColor=none;fontFamily=Verdana;fontSize=12;edgeStyle=elbowEdgeStyle;elbow=vertical;" parent="7baba1c4bc27f4b0-5" target="aB-_NTusQyPcKDF3ZL6z-7" edge="1">
          <mxGeometry x="0.4384" relative="1" as="geometry">
            <mxPoint x="-530.5" y="360" as="sourcePoint" />
            <Array as="points">
              <mxPoint x="-270" y="370" />
              <mxPoint x="-10" y="360" />
              <mxPoint x="-80" y="370" />
            </Array>
            <mxPoint as="offset" />
          </mxGeometry>
        </mxCell>
        <mxCell id="7baba1c4bc27f4b0-8" value="Load Balancer" style="shape=umlLifeline;perimeter=lifelinePerimeter;whiteSpace=wrap;html=1;container=1;collapsible=0;recursiveResize=0;outlineConnect=0;rounded=1;shadow=0;comic=0;labelBackgroundColor=none;strokeWidth=1;fontFamily=Verdana;fontSize=12;align=center;" parent="1" vertex="1">
          <mxGeometry x="100" y="80" width="101" height="600" as="geometry" />
        </mxCell>
        <mxCell id="7baba1c4bc27f4b0-9" value="" style="html=1;points=[];perimeter=orthogonalPerimeter;rounded=0;shadow=0;comic=0;labelBackgroundColor=none;strokeWidth=1;fontFamily=Verdana;fontSize=12;align=center;" parent="7baba1c4bc27f4b0-8" vertex="1">
          <mxGeometry x="45" y="70" width="10" height="330" as="geometry" />
        </mxCell>
        <mxCell id="7baba1c4bc27f4b0-17" value="Job #3, 10 seconds" style="html=1;verticalAlign=bottom;endArrow=block;labelBackgroundColor=none;fontFamily=Verdana;fontSize=12;edgeStyle=elbowEdgeStyle;elbow=vertical;" parent="1" source="7baba1c4bc27f4b0-8" target="7baba1c4bc27f4b0-16" edge="1">
          <mxGeometry x="0.7015" relative="1" as="geometry">
            <mxPoint x="510" y="220" as="sourcePoint" />
            <Array as="points">
              <mxPoint x="390" y="240" />
              <mxPoint x="480" y="220" />
            </Array>
            <mxPoint as="offset" />
          </mxGeometry>
        </mxCell>
        <mxCell id="7baba1c4bc27f4b0-20" value="Job #4, 5 seconds" style="html=1;verticalAlign=bottom;endArrow=block;entryX=0;entryY=0;labelBackgroundColor=none;fontFamily=Verdana;fontSize=12;edgeStyle=elbowEdgeStyle;elbow=vertical;" parent="1" source="7baba1c4bc27f4b0-8" target="7baba1c4bc27f4b0-19" edge="1">
          <mxGeometry x="0.8089" y="-10" relative="1" as="geometry">
            <mxPoint x="149.5" y="250" as="sourcePoint" />
            <Array as="points">
              <mxPoint x="670" y="280" />
              <mxPoint x="600" y="290" />
            </Array>
            <mxPoint x="-10" y="-10" as="offset" />
          </mxGeometry>
        </mxCell>
        <mxCell id="7baba1c4bc27f4b0-11" value="Job #1, 10 seconds" style="html=1;verticalAlign=bottom;endArrow=block;entryX=0;entryY=0;labelBackgroundColor=none;fontFamily=Verdana;fontSize=12;edgeStyle=elbowEdgeStyle;elbow=vertical;" parent="1" source="7baba1c4bc27f4b0-8" target="7baba1c4bc27f4b0-10" edge="1">
          <mxGeometry relative="1" as="geometry">
            <mxPoint x="155" y="161" as="sourcePoint" />
          </mxGeometry>
        </mxCell>
        <mxCell id="7baba1c4bc27f4b0-14" value="&lt;div&gt;Job #2, 3 seconds&lt;/div&gt;" style="html=1;verticalAlign=bottom;endArrow=block;entryX=0;entryY=0;labelBackgroundColor=none;fontFamily=Verdana;fontSize=12;edgeStyle=elbowEdgeStyle;elbow=vertical;" parent="1" source="7baba1c4bc27f4b0-8" target="7baba1c4bc27f4b0-13" edge="1">
          <mxGeometry x="0.4924" relative="1" as="geometry">
            <mxPoint x="370" y="200" as="sourcePoint" />
            <mxPoint as="offset" />
          </mxGeometry>
        </mxCell>
        <mxCell id="aB-_NTusQyPcKDF3ZL6z-2" value="Job #5, 5 seconds" style="html=1;verticalAlign=bottom;endArrow=block;labelBackgroundColor=none;fontFamily=Verdana;fontSize=12;edgeStyle=elbowEdgeStyle;elbow=vertical;entryX=0.8;entryY=0;entryDx=0;entryDy=0;entryPerimeter=0;" parent="1" source="7baba1c4bc27f4b0-8" target="aB-_NTusQyPcKDF3ZL6z-1" edge="1">
          <mxGeometry x="0.4521" relative="1" as="geometry">
            <mxPoint x="145" y="319" as="sourcePoint" />
            <mxPoint x="285" y="319.5000000000001" as="targetPoint" />
            <Array as="points">
              <mxPoint x="390" y="320" />
              <mxPoint x="330" y="330" />
              <mxPoint x="230" y="320" />
              <mxPoint x="180" y="330" />
              <mxPoint x="180" y="319" />
              <mxPoint x="240" y="270" />
            </Array>
            <mxPoint as="offset" />
          </mxGeometry>
        </mxCell>
        <mxCell id="A_7wRifnEgXf8JA2r-fD-9" value="&lt;div&gt;Node 1: 50%, Node 2: 25%, &lt;br&gt;&lt;/div&gt;&lt;div&gt;Node 3: 10%, &lt;b&gt;Node 4: 0%&lt;/b&gt;&lt;/div&gt;" style="text;html=1;align=center;verticalAlign=middle;resizable=0;points=[];autosize=1;" parent="1" vertex="1">
          <mxGeometry x="-35" y="265" width="160" height="30" as="geometry" />
        </mxCell>
        <mxCell id="A_7wRifnEgXf8JA2r-fD-10" value="&lt;div&gt;Node 1: 50%, &lt;b&gt;Node 2: 0%&lt;/b&gt;, &lt;br&gt;&lt;/div&gt;&lt;div&gt;Node 3: 10%, Node 4: 50%&lt;/div&gt;" style="text;html=1;align=center;verticalAlign=middle;resizable=0;points=[];autosize=1;" parent="1" vertex="1">
          <mxGeometry x="-35" y="305" width="160" height="30" as="geometry" />
        </mxCell>
        <mxCell id="A_7wRifnEgXf8JA2r-fD-11" value="&lt;div&gt;Node 1: 50%, Node 2: 25%, &lt;br&gt;&lt;/div&gt;&lt;div&gt;&lt;b&gt;Node 3: 10%&lt;/b&gt;, Node 4: 50%&lt;/div&gt;" style="text;html=1;align=center;verticalAlign=middle;resizable=0;points=[];autosize=1;" parent="1" vertex="1">
          <mxGeometry x="-35" y="345" width="160" height="30" as="geometry" />
        </mxCell>
        <mxCell id="aB-_NTusQyPcKDF3ZL6z-3" value="" style="html=1;points=[];perimeter=orthogonalPerimeter;rounded=0;shadow=0;comic=0;labelBackgroundColor=none;strokeWidth=1;fontFamily=Verdana;fontSize=12;align=center;" parent="1" vertex="1">
          <mxGeometry x="605" y="360" width="10" height="200" as="geometry" />
        </mxCell>
        <mxCell id="A_7wRifnEgXf8JA2r-fD-12" value="&lt;div&gt;Node 1: 50%, Node 2: 25%, &lt;br&gt;&lt;/div&gt;&lt;div&gt;&lt;b&gt;Node 3: 20%&lt;/b&gt;, Node 4: 50%&lt;/div&gt;" style="text;html=1;align=center;verticalAlign=middle;resizable=0;points=[];autosize=1;" parent="1" vertex="1">
          <mxGeometry x="-35" y="385" width="160" height="30" as="geometry" />
        </mxCell>
        <mxCell id="aB-_NTusQyPcKDF3ZL6z-5" value="" style="html=1;points=[];perimeter=orthogonalPerimeter;rounded=0;shadow=0;comic=0;labelBackgroundColor=none;strokeWidth=1;fontFamily=Verdana;fontSize=12;align=center;" parent="1" vertex="1">
          <mxGeometry x="620" y="400" width="10" height="200" as="geometry" />
        </mxCell>
        <mxCell id="A_7wRifnEgXf8JA2r-fD-13" value="&lt;div&gt;Node 1: 50%, &lt;b&gt;Node 2: 25%&lt;/b&gt;, &lt;br&gt;&lt;/div&gt;&lt;div&gt;Node 3: 30%, Node 4: 50%&lt;/div&gt;" style="text;html=1;align=center;verticalAlign=middle;resizable=0;points=[];autosize=1;" parent="1" vertex="1">
          <mxGeometry x="-40" y="425" width="170" height="30" as="geometry" />
        </mxCell>
        <mxCell id="aB-_NTusQyPcKDF3ZL6z-7" value="" style="html=1;points=[];perimeter=orthogonalPerimeter;rounded=0;shadow=0;comic=0;labelBackgroundColor=none;strokeWidth=1;fontFamily=Verdana;fontSize=12;align=center;" parent="1" vertex="1">
          <mxGeometry x="460" y="450" width="10" height="70" as="geometry" />
        </mxCell>
        <mxCell id="A_7wRifnEgXf8JA2r-fD-14" value="&lt;div&gt;Node 1: 50%, Node 2: 25%, &lt;br&gt;&lt;/div&gt;&lt;div&gt;&lt;b&gt;Node 3: 0%&lt;/b&gt;, Node 4: 0%&lt;/div&gt;" style="text;html=1;align=center;verticalAlign=middle;resizable=0;points=[];autosize=1;" parent="1" vertex="1">
          <mxGeometry x="-30" y="225" width="160" height="30" as="geometry" />
        </mxCell>
        <mxCell id="A_7wRifnEgXf8JA2r-fD-15" value="&lt;div&gt;Node 1: 50%, &lt;b&gt;Node 2: 0%&lt;/b&gt;,&lt;/div&gt;&lt;div&gt;Node 3: 0%, Node 4: 0%&lt;br&gt;&lt;/div&gt;" style="text;html=1;align=center;verticalAlign=middle;resizable=0;points=[];autosize=1;" parent="1" vertex="1">
          <mxGeometry x="-35" y="185" width="160" height="30" as="geometry" />
        </mxCell>
        <mxCell id="A_7wRifnEgXf8JA2r-fD-16" value="&lt;div&gt;Node 1: 0%, Node 2: 0%, &lt;br&gt;&lt;/div&gt;&lt;div&gt;Node 3: 0%, Node 4: 0%&lt;/div&gt;" style="text;html=1;align=center;verticalAlign=middle;resizable=0;points=[];autosize=1;" parent="1" vertex="1">
          <mxGeometry x="-30" y="145" width="150" height="30" as="geometry" />
        </mxCell>
        <mxCell id="A_7wRifnEgXf8JA2r-fD-17" value="&lt;div&gt;Node utilisation per incoming job request, &lt;br&gt;&lt;/div&gt;&lt;div&gt;&lt;b&gt;bold&lt;/b&gt; indicates node selected for job&lt;br&gt;&lt;/div&gt;" style="text;html=1;align=center;verticalAlign=middle;resizable=0;points=[];autosize=1;" parent="1" vertex="1">
          <mxGeometry x="-131" y="97" width="240" height="30" as="geometry" />
        </mxCell>
      </root>
    </mxGraphModel>
  </diagram>
</mxfile>
